<?xml version="1.0" encoding="utf-8"?>
<svg viewBox="138.92 115.154 111.161 112.389" width="111.161" height="112.389" xmlns="http://www.w3.org/2000/svg">
  <path d="M 193.839 115.155 C 189.255 115.176 184.878 115.567 181.027 116.249 C 169.681 118.254 167.621 122.449 167.621 130.187 L 167.621 140.406 L 194.433 140.406 L 194.433 143.812 L 157.558 143.812 C 149.766 143.812 142.942 148.496 140.808 157.406 C 138.346 167.619 138.237 173.992 140.808 184.656 C 142.714 192.594 147.266 198.25 155.058 198.25 L 164.277 198.25 L 164.277 186 C 164.277 177.15 171.934 169.344 181.027 169.344 L 207.808 169.344 C 215.263 169.344 221.214 163.206 221.214 155.719 L 221.214 130.186 C 221.214 122.92 215.084 117.461 207.808 116.248 C 203.201 115.482 198.423 115.133 193.839 115.155 Z M 179.339 123.373 C 182.109 123.373 184.37 125.672 184.37 128.498 C 184.37 131.314 182.108 133.592 179.339 133.592 C 176.56 133.592 174.308 131.315 174.308 128.498 C 174.308 125.672 176.56 123.373 179.339 123.373 Z" style="fill: rgb(30, 136, 229);" />
  <path d="M 224.558 143.811 L 224.558 155.717 C 224.558 164.948 216.732 172.717 207.808 172.717 L 181.027 172.717 C 173.691 172.717 167.621 178.995 167.621 186.342 L 167.621 211.873 C 167.621 219.14 173.939 223.414 181.027 225.498 C 189.514 227.994 197.653 228.445 207.808 225.498 C 214.558 223.544 221.214 219.61 221.214 211.873 L 221.214 201.655 L 194.433 201.655 L 194.433 198.249 L 234.62 198.249 C 242.413 198.249 245.316 192.813 248.026 184.655 C 250.826 176.257 250.707 168.179 248.026 157.405 C 246.1 149.648 242.422 143.811 234.62 143.811 L 224.558 143.811 Z M 209.495 208.467 C 212.274 208.467 214.526 210.744 214.526 213.561 C 214.526 216.387 212.274 218.686 209.495 218.686 C 206.725 218.686 204.464 216.387 204.464 213.561 C 204.464 210.745 206.726 208.467 209.495 208.467 Z" style="fill: rgb(255, 235, 59);" />
</svg>