<?xml version="1.0" encoding="utf-8"?>
<svg viewBox="138.92 115.154 111.161 112.389" width="111.161" height="112.389" xmlns="http://www.w3.org/2000/svg">
  <path d="M 193.948 124.447 C 190.122 124.464 186.469 124.79 183.255 125.36 C 173.785 127.033 172.066 130.534 172.066 136.993 L 172.066 145.522 L 194.444 145.522 L 194.444 148.365 L 163.667 148.365 C 157.163 148.365 151.467 152.275 149.686 159.711 C 147.631 168.236 147.54 173.555 149.686 182.456 C 151.277 189.081 155.076 193.802 161.58 193.802 L 169.275 193.802 L 169.275 183.577 C 169.275 176.191 175.665 169.675 183.255 169.675 L 205.608 169.675 C 211.83 169.675 216.797 164.552 216.797 158.303 L 216.797 136.992 C 216.797 130.928 211.681 126.371 205.608 125.359 C 201.762 124.719 197.774 124.428 193.948 124.447 Z M 181.846 131.306 C 184.158 131.306 186.045 133.225 186.045 135.583 C 186.045 137.934 184.157 139.835 181.846 139.835 C 179.527 139.835 177.647 137.935 177.647 135.583 C 177.647 133.225 179.527 131.306 181.846 131.306 Z" style="fill: rgb(30, 136, 229);" />
  <path d="M 219.588 148.364 L 219.588 158.302 C 219.588 166.006 213.056 172.491 205.608 172.491 L 183.255 172.491 C 177.132 172.491 172.066 177.731 172.066 183.863 L 172.066 205.172 C 172.066 211.238 177.339 214.805 183.255 216.544 C 190.339 218.628 197.132 219.004 205.608 216.544 C 211.242 214.913 216.797 211.63 216.797 205.172 L 216.797 196.644 L 194.444 196.644 L 194.444 193.801 L 227.986 193.801 C 234.491 193.801 236.914 189.264 239.176 182.455 C 241.513 175.445 241.413 168.703 239.176 159.711 C 237.568 153.236 234.498 148.364 227.986 148.364 L 219.588 148.364 Z M 207.016 202.329 C 209.335 202.329 211.215 204.23 211.215 206.581 C 211.215 208.94 209.335 210.859 207.016 210.859 C 204.704 210.859 202.817 208.94 202.817 206.581 C 202.817 204.231 204.705 202.329 207.016 202.329 Z" style="fill: rgb(255, 235, 59);" />
</svg>